<svg xmlns="http://www.w3.org/2000/svg" xmlns:xlink="http://www.w3.org/1999/xlink" width="286.573" height="131.357" viewBox="0 0 286.573 131.357">
  <defs>
    <radialGradient id="radial-gradient" cx="0.5" cy="0.5" r="0.5" gradientUnits="objectBoundingBox">
      <stop offset="0" stop-color="#fff"/>
      <stop offset="1" stop-color="#fca01f"/>
    </radialGradient>
  </defs>
  <g id="Group_29" data-name="Group 29" transform="translate(-959.014 -408.278)">
    <g id="Group_12" data-name="Group 12" transform="translate(984.123 460.062)">
      <g id="Group_11" data-name="Group 11" transform="translate(0 0)">
        <path id="Path_1939" data-name="Path 1939" d="M1094.4,674.382c0,8.985,5.8,11.607,5.8,11.607h-11.607a5.78,5.78,0,0,1-5.8-5.8v5.8h-11.607c-11.607,0-17.368-8.684-17.368-17.411,0-8.684,5.8-17.367,17.368-17.367h5.8a5.779,5.779,0,0,1,5.8,5.8v-5.8c8.985,0,11.607-5.8,11.607-5.8Zm-23.214-27.814-6.921-6.964,6.921-6.921,5.8,5.76,5.8-5.76,6.964,6.921-6.964,6.964-5.8-5.8Zm11.607,27.814V662.818h-11.607a5.782,5.782,0,0,0,0,11.564Z" transform="translate(-1053.815 -625.03)" fill="#2f4154"/>
        <path id="Path_1940" data-name="Path 1940" d="M1218.438,790.27h-11.564v5.8a5.77,5.77,0,0,0,5.8,5.76h17.367V790.266h-11.607Z" transform="translate(-1166.334 -740.876)" fill="#2f4154"/>
        <path id="Path_1941" data-name="Path 1941" d="M1353.652,702.637h-24.676c-4.17,0-8.383,2.02-11.607,7.437v-7.437l-11.564,5.8v17.411H1294.2v5.761a5.779,5.779,0,0,0,5.8,5.8h11.564a5.779,5.779,0,0,0,5.8-5.8v5.8h53.651V720.048C1371.02,711.321,1365.259,702.637,1353.652,702.637Zm5.8,23.214h-42.086c0-5.761,3.869-11.607,11.607-11.607h24.676a5.564,5.564,0,0,1,5.8,5.8Z" transform="translate(-1230.53 -676.456)" fill="#2f4154"/>
        <path id="Path_1942" data-name="Path 1942" d="M1656.562,737.534c-2.493,11.607-12.553,17.41-22.569,17.41,0-8.985-5.8-11.607-5.8-11.607h5.8a11.39,11.39,0,0,0,10.231-5.8h-4.471c-11.521,0-17.324-8.6-17.368-17.239-.086-8.727,5.718-17.5,17.368-17.5,11.607,0,17.411,8.684,17.411,17.368v5.8c0,8.985,5.8,11.564,5.8,11.564Zm-11.005-17.368a5.782,5.782,0,1,0-5.8,5.8h5.8Z" transform="translate(-1471.792 -676.576)" fill="#2f4154"/>
        <path id="Path_1943" data-name="Path 1943" d="M1759.382,737.534a5.9,5.9,0,0,1-5.846-5.8V725.97h11.65V708.6a5.8,5.8,0,0,1,5.76-5.8h5.8v34.735Zm18.528,11.65-6.964,6.964-6.921-6.964,6.921-6.964Z" transform="translate(-1568.207 -676.576)" fill="#2f4154"/>
        <path id="Path_1944" data-name="Path 1944" d="M1852.585,603.954c4.3,15.777,18.571,23.171,18.571,23.171h-6.964V664.87h-17.368a5.77,5.77,0,0,1-5.8-5.76v-5.8h11.564Z" transform="translate(-1632.52 -603.911)" fill="#2f4154"/>
        <path id="Path_1945" data-name="Path 1945" d="M1971.031,603.791c4.3,15.82,18.528,23.214,18.528,23.214h-6.921V664.75h-11.607Z" transform="translate(-1728.095 -603.791)" fill="#2f4154"/>
      </g>
    </g>
    <g id="Group_14" data-name="Group 14" transform="translate(990.107 528.207)">
      <g id="Group_13" data-name="Group 13" transform="translate(0 0)">
        <path id="Path_1946" data-name="Path 1946" d="M1079.636,861.871h1.616l3.22,8.371h-1.656l-.655-1.724h-3.416l-.681,1.724h-1.656Zm.818,2.219-1.123,2.874h2.239Z" transform="translate(-1076.408 -861.66)" fill="#5d7989"/>
        <path id="Path_1947" data-name="Path 1947" d="M1139.694,861.076h1.553v8.581h-1.553Z" transform="translate(-1122.932 -861.076)" fill="#5d7989"/>
        <path id="Path_1948" data-name="Path 1948" d="M1181.184,879.1h2.891v1.445h-2.891Z" transform="translate(-1153.433 -874.328)" fill="#5d7989"/>
        <path id="Path_1949" data-name="Path 1949" d="M1228.968,870.242v-8.371h1.316a6.82,6.82,0,0,1,1.675.148,2.242,2.242,0,0,1,1.2.74,1.946,1.946,0,0,1,.445,1.274,1.86,1.86,0,0,1-.2.868,2.209,2.209,0,0,1-.657.731,2.623,2.623,0,0,1,1.115.9,2.265,2.265,0,0,1,.353,1.272,2.371,2.371,0,0,1-.364,1.286,2.33,2.33,0,0,1-.94.868,3.613,3.613,0,0,1-1.589.287Zm1.593-6.852v1.764h.348a1.3,1.3,0,0,0,.865-.245.835.835,0,0,0,.283-.666.78.78,0,0,0-.268-.623,1.229,1.229,0,0,0-.817-.231Zm0,3.187v2.145h.4a2.466,2.466,0,0,0,1.338-.25.843.843,0,0,0,.345-.728,1.021,1.021,0,0,0-.405-.854,2.239,2.239,0,0,0-1.346-.313Z" transform="translate(-1188.561 -861.66)" fill="#5d7989"/>
        <path id="Path_1950" data-name="Path 1950" d="M1287.107,869.657h1.553v6.191h-1.553v-.654a3.035,3.035,0,0,1-.912.623,2.552,2.552,0,0,1-.992.191,2.755,2.755,0,0,1-2.074-.93,3.245,3.245,0,0,1-.875-2.313,3.327,3.327,0,0,1,.847-2.35,2.7,2.7,0,0,1,2.058-.916,2.613,2.613,0,0,1,1.046.211,2.854,2.854,0,0,1,.9.632Zm-1.633,1.275a1.569,1.569,0,0,0-1.2.509,1.835,1.835,0,0,0-.476,1.306,1.855,1.855,0,0,0,.485,1.32,1.571,1.571,0,0,0,1.194.518,1.6,1.6,0,0,0,1.214-.509,1.862,1.862,0,0,0,.482-1.334,1.808,1.808,0,0,0-.482-1.309A1.62,1.62,0,0,0,1285.474,870.932Z" transform="translate(-1227.732 -867.267)" fill="#5d7989"/>
        <path id="Path_1951" data-name="Path 1951" d="M1339.265,870.1h1.521l1.245,3.522,1.339-3.522h.93l1.315,3.482,1.247-3.482h1.53l-2.259,6.191h-.984l-1.32-3.528-1.36,3.528h-.973Z" transform="translate(-1269.644 -867.71)" fill="#5d7989"/>
        <path id="Path_1952" data-name="Path 1952" d="M1408.957,870.522l-.962.962a1.627,1.627,0,0,0-1.064-.58.667.667,0,0,0-.41.111.333.333,0,0,0-.148.276.337.337,0,0,0,.094.23,1.742,1.742,0,0,0,.464.287l.569.285a3.351,3.351,0,0,1,1.235.9,1.884,1.884,0,0,1-.27,2.458,2.32,2.32,0,0,1-1.625.552,2.582,2.582,0,0,1-2.162-1.058l.956-1.041a2.2,2.2,0,0,0,.64.515,1.417,1.417,0,0,0,.652.2.775.775,0,0,0,.495-.148.428.428,0,0,0,.188-.341q0-.358-.677-.7l-.524-.262q-1.5-.757-1.5-1.895a1.645,1.645,0,0,1,.566-1.255,2.056,2.056,0,0,1,1.448-.521,2.513,2.513,0,0,1,2.037,1.024Z" transform="translate(-1317.732 -867.267)" fill="#5d7989"/>
        <path id="Path_1953" data-name="Path 1953" d="M1459.143,869.657h1.553v6.191h-1.553v-.654a3.039,3.039,0,0,1-.912.623,2.551,2.551,0,0,1-.992.191,2.755,2.755,0,0,1-2.075-.93,3.245,3.245,0,0,1-.875-2.313,3.325,3.325,0,0,1,.847-2.35,2.7,2.7,0,0,1,2.057-.916,2.616,2.616,0,0,1,1.046.211,2.858,2.858,0,0,1,.9.632Zm-1.633,1.275a1.569,1.569,0,0,0-1.2.509,2.034,2.034,0,0,0,.008,2.626,1.571,1.571,0,0,0,1.194.518,1.6,1.6,0,0,0,1.214-.509,1.861,1.861,0,0,0,.482-1.334,1.808,1.808,0,0,0-.482-1.309A1.619,1.619,0,0,0,1457.51,870.932Z" transform="translate(-1354.202 -867.267)" fill="#5d7989"/>
        <path id="Path_1954" data-name="Path 1954" d="M1513.245,861.076h1.553v8.581h-1.553Z" transform="translate(-1397.543 -861.076)" fill="#5d7989"/>
        <path id="Path_1955" data-name="Path 1955" d="M1557.7,869.657h1.553v6.191H1557.7v-.654a3.04,3.04,0,0,1-.912.623,2.552,2.552,0,0,1-.992.191,2.756,2.756,0,0,1-2.075-.93,3.245,3.245,0,0,1-.875-2.313,3.325,3.325,0,0,1,.847-2.35,2.7,2.7,0,0,1,2.057-.916,2.617,2.617,0,0,1,1.046.211,2.856,2.856,0,0,1,.9.632Zm-1.633,1.275a1.57,1.57,0,0,0-1.2.509,1.835,1.835,0,0,0-.476,1.306,1.855,1.855,0,0,0,.485,1.32,1.57,1.57,0,0,0,1.194.518,1.6,1.6,0,0,0,1.214-.509,1.863,1.863,0,0,0,.482-1.334,1.809,1.809,0,0,0-.482-1.309A1.619,1.619,0,0,0,1556.065,870.932Z" transform="translate(-1426.654 -867.267)" fill="#5d7989"/>
      </g>
    </g>
    <g id="Group_15" data-name="Group 15" transform="translate(1026.842 408.278)">
      <path id="Path_1956" data-name="Path 1956" d="M1249.464,424.361l-.186-.12c-.08-.988.629-1.91.021-2.866-.015-.024.006-.067,0-.1-.189-.714-.388-1.426-.568-2.143a3.194,3.194,0,0,1-.191-1.04c.146-1.437.344-2.868.532-4.3a19.341,19.341,0,0,0,.312-2.4,2.325,2.325,0,0,1,.281-1.455c.223-.322.041-.653-.353-.743a1.746,1.746,0,0,0-.5-.026,1.312,1.312,0,0,1-1.316-.624,1.444,1.444,0,0,0-.289-.265h-.4a5.307,5.307,0,0,0-.8,2.92,2.742,2.742,0,0,1-1.649,2.7c-.2.078-.378.205-.569.3-1.007.516-1.3.507-2.12-.272a1.557,1.557,0,0,0-1.622-.4,5.653,5.653,0,0,1-3.092.055,5,5,0,0,0-.6-.117c-.133.757-.215,1.482-.4,2.181-.186.719-.489,1.407-.7,2.121a1.325,1.325,0,0,0-.007.813,2.039,2.039,0,0,1-.468,2.235c-.295.357-.571.44-.947.075a.605.605,0,0,0-.989.063,1.772,1.772,0,0,0-.308.669c-.239,1.116-.476,2.234-.668,3.359-.485,2.845-.923,5.7-1.423,8.542a45.158,45.158,0,0,1-2.226,7.778c-.146.4-.466.728-.617,1.123-.688,1.79-1.253,3.634-2.033,5.382a31.5,31.5,0,0,1-5.105,8.614c-1.706,1.878-3.572,3.611-5.367,5.409v.2a2.35,2.35,0,0,1,.122.263q.888,2.739,1.77,5.48c.765,2.381,1.493,4.774,2.3,7.14.753,2.209,1.593,4.389,2.384,6.586.14.388.23.794.334,1.195.185.716.389,1.429.534,2.154a2.018,2.018,0,0,1,.011,1.091,1.243,1.243,0,0,0,.23,1.419c.281.326.619.6.9.927a2.931,2.931,0,0,1,.583.836c.586,1.584,1.2,3.164,1.681,4.782,1.322,4.443,3.114,8.739,4.12,13.278a6.414,6.414,0,0,1,.286,1.993,3.924,3.924,0,0,0,1.312,3.185,9.29,9.29,0,0,0,1.4-1.671,17.183,17.183,0,0,0,1.066-2.932c.3-1.014.392-2.1.758-3.08a13.615,13.615,0,0,0,.847-3.718,11.374,11.374,0,0,1,1.954-5.206,1.818,1.818,0,0,0,.3-1.405,8.482,8.482,0,0,0-.26-1.06,4.214,4.214,0,0,1,.3-3.423,2.437,2.437,0,0,0,.086-2.06,2.471,2.471,0,0,1-.131-1.3c.3-1.253.659-2.5,1.086-3.715.553-1.576,1.194-3.121,1.8-4.678a4.915,4.915,0,0,1,.5-1.183,2.584,2.584,0,0,0,.537-1.572,2.225,2.225,0,0,1,1.045-2.015,2.192,2.192,0,0,0,.869-1.665c.1-.683.271-1.356.429-2.029.177-.756.4-1.5.553-2.262.1-.486.094-.991.144-1.487.253-2.5.512-4.992.762-7.488.26-2.6.509-5.193.772-7.789.095-.933.274-1.861.3-2.8.018-.567-.326-1.165-.24-1.706a12.647,12.647,0,0,0-.022-3.113,10.763,10.763,0,0,1,.72-3.9,6.535,6.535,0,0,0,.187-3.092,8.448,8.448,0,0,1-.209-1.578c.006-1.66.062-3.32.1-4.98a2.633,2.633,0,0,1,.06-.292,7.03,7.03,0,0,0,.194-1.559,1.748,1.748,0,0,1,.527-1.7,3.311,3.311,0,0,1,.624-.417c.22-.107.484-.125.7-.238C1249.914,425,1249.918,424.658,1249.464,424.361Z" transform="translate(-1215.103 -408.278)" fill="#2f4154"/>
      <circle id="Ellipse_7" data-name="Ellipse 7" cx="5.624" cy="5.624" r="5.624" transform="translate(11.724 46.416)" fill="url(#radial-gradient)"/>
    </g>
    <g id="Group_17" data-name="Group 17" transform="translate(959.014 477.147)">
      <g id="Group_16" data-name="Group 16" transform="translate(22.288 7.41)" opacity="0.4">
        <path id="Path_1957" data-name="Path 1957" d="M1119.931,696.325l-.134.012v-.017Z" transform="translate(-1099.499 -696.308)" fill="#f9940a"/>
        <path id="Path_1958" data-name="Path 1958" d="M1118.041,696.328l-.266.028,0-.082.268,0Z" transform="translate(-1098.01 -696.274)" fill="#f9940a"/>
        <path id="Path_1959" data-name="Path 1959" d="M1116.018,696.387l-.265.033-.012-.141.269,0Z" transform="translate(-1096.518 -696.275)" fill="#f9940a"/>
        <path id="Path_1960" data-name="Path 1960" d="M1114,696.487l-.263.04-.023-.2.269-.011Z" transform="translate(-1095.025 -696.305)" fill="#f9940a"/>
        <path id="Path_1961" data-name="Path 1961" d="M1111.978,696.638l-.262.045-.037-.256.269-.019Z" transform="translate(-1093.532 -696.372)" fill="#f9940a"/>
        <path id="Path_1962" data-name="Path 1962" d="M1109.964,696.847l-.26.051-.053-.3.268-.026Z" transform="translate(-1092.041 -696.489)" fill="#f9940a"/>
        <path id="Path_1963" data-name="Path 1963" d="M1107.957,697.108l-.258.057-.073-.354.268-.033Z" transform="translate(-1090.552 -696.645)" fill="#f9940a"/>
        <path id="Path_1964" data-name="Path 1964" d="M1105.956,697.419l-.256.064-.095-.4.267-.04Z" transform="translate(-1089.067 -696.838)" fill="#f9940a"/>
        <path id="Path_1965" data-name="Path 1965" d="M1103.966,697.782l-.254.07-.119-.449.266-.047Z" transform="translate(-1087.587 -697.07)" fill="#f9940a"/>
        <path id="Path_1966" data-name="Path 1966" d="M1101.988,698.2l-.252.074-.145-.489.265-.056Z" transform="translate(-1086.116 -697.342)" fill="#f9940a"/>
        <path id="Path_1967" data-name="Path 1967" d="M1100.017,698.669l-.25.081-.173-.525.264-.063Z" transform="translate(-1084.648 -697.662)" fill="#f9940a"/>
        <path id="Path_1968" data-name="Path 1968" d="M1098.065,699.191l-.246.087-.2-.561.261-.069Z" transform="translate(-1083.194 -698.019)" fill="#f9940a"/>
        <path id="Path_1969" data-name="Path 1969" d="M1096.134,699.762l-.243.093-.234-.6.259-.076Z" transform="translate(-1081.753 -698.413)" fill="#f9940a"/>
        <path id="Path_1970" data-name="Path 1970" d="M1094.22,700.38l-.241.1-.268-.628.258-.083Z" transform="translate(-1080.323 -698.842)" fill="#f9940a"/>
        <path id="Path_1971" data-name="Path 1971" d="M1092.319,701.049l-.237.105-.3-.66.255-.089Z" transform="translate(-1078.901 -699.31)" fill="#f9940a"/>
        <path id="Path_1972" data-name="Path 1972" d="M1090.439,701.766l-.234.11-.342-.689.253-.1Z" transform="translate(-1077.494 -699.815)" fill="#f9940a"/>
        <path id="Path_1973" data-name="Path 1973" d="M1088.583,702.537l-.231.115-.377-.71.249-.1Z" transform="translate(-1076.106 -700.364)" fill="#f9940a"/>
        <path id="Path_1974" data-name="Path 1974" d="M1086.75,703.356l-.228.12-.414-.729.246-.111Z" transform="translate(-1074.734 -700.951)" fill="#f9940a"/>
        <path id="Path_1975" data-name="Path 1975" d="M1084.941,704.222l-.224.126-.452-.748.243-.117Z" transform="translate(-1073.378 -701.574)" fill="#f9940a"/>
        <path id="Path_1976" data-name="Path 1976" d="M1083.157,705.133l-.22.131-.492-.765.24-.123Z" transform="translate(-1072.041 -702.231)" fill="#f9940a"/>
        <path id="Path_1977" data-name="Path 1977" d="M1081.4,706.089l-.216.137-.533-.78.237-.129Z" transform="translate(-1070.722 -702.922)" fill="#f9940a"/>
        <path id="Path_1978" data-name="Path 1978" d="M1079.672,707.09l-.212.142-.575-.794.233-.135Z" transform="translate(-1069.423 -703.646)" fill="#f9940a"/>
        <path id="Path_1979" data-name="Path 1979" d="M1077.971,708.133l-.208.147-.618-.806.229-.141Z" transform="translate(-1068.145 -704.404)" fill="#f9940a"/>
        <path id="Path_1980" data-name="Path 1980" d="M1076.3,709.219l-.2.152-.662-.817.225-.147Z" transform="translate(-1066.888 -705.194)" fill="#f9940a"/>
        <path id="Path_1981" data-name="Path 1981" d="M1074.67,710.35l-.2.155-.7-.82.22-.154Z" transform="translate(-1065.662 -706.02)" fill="#f9940a"/>
        <path id="Path_1982" data-name="Path 1982" d="M1073.07,711.525l-.2.16-.741-.821.215-.159Z" transform="translate(-1064.46 -706.882)" fill="#f9940a"/>
        <path id="Path_1983" data-name="Path 1983" d="M1071.5,712.74l-.191.164-.781-.82.211-.165Z" transform="translate(-1063.283 -707.775)" fill="#f9940a"/>
        <path id="Path_1984" data-name="Path 1984" d="M1069.973,713.993l-.186.169-.822-.818.206-.17Z" transform="translate(-1062.131 -708.698)" fill="#f9940a"/>
        <path id="Path_1985" data-name="Path 1985" d="M1068.478,715.284l-.181.173-.862-.814.2-.175Z" transform="translate(-1061.006 -709.649)" fill="#f9940a"/>
        <path id="Path_1986" data-name="Path 1986" d="M1067.02,716.613l-.176.177-.9-.809.2-.18Z" transform="translate(-1059.908 -710.629)" fill="#f9940a"/>
        <path id="Path_1987" data-name="Path 1987" d="M1065.6,717.977l-.171.182-.945-.8.192-.185Z" transform="translate(-1058.837 -711.636)" fill="#f9940a"/>
        <path id="Path_1988" data-name="Path 1988" d="M1064.219,719.376l-.166.186-.987-.8.186-.19Z" transform="translate(-1057.795 -712.67)" fill="#f9940a"/>
        <path id="Path_1989" data-name="Path 1989" d="M1062.877,720.81l-.16.19-1.029-.786.181-.194Z" transform="translate(-1056.782 -713.73)" fill="#f9940a"/>
        <path id="Path_1990" data-name="Path 1990" d="M1061.577,722.277l-.155.193-1.071-.775.176-.2Z" transform="translate(-1055.799 -714.815)" fill="#f9940a"/>
        <path id="Path_1991" data-name="Path 1991" d="M1060.326,723.777l-.151.2-1.106-.758.168-.2Z" transform="translate(-1054.856 -715.928)" fill="#f9940a"/>
        <path id="Path_1992" data-name="Path 1992" d="M1059.117,725.312l-.146.2-1.139-.739.162-.209Z" transform="translate(-1053.947 -717.07)" fill="#f9940a"/>
        <path id="Path_1993" data-name="Path 1993" d="M1057.952,726.876l-.14.2-1.173-.719.156-.213Z" transform="translate(-1053.07 -718.235)" fill="#f9940a"/>
        <path id="Path_1994" data-name="Path 1994" d="M1056.832,728.469l-.134.206-1.206-.7.151-.217Z" transform="translate(-1052.227 -719.421)" fill="#f9940a"/>
        <path id="Path_1995" data-name="Path 1995" d="M1055.756,730.09l-.128.209-1.238-.675.144-.22Z" transform="translate(-1051.416 -720.629)" fill="#f9940a"/>
        <path id="Path_1996" data-name="Path 1996" d="M1054.727,731.737l-.122.212-1.27-.652.138-.224Z" transform="translate(-1050.64 -721.856)" fill="#f9940a"/>
        <path id="Path_1997" data-name="Path 1997" d="M1053.744,733.409l-.116.215-1.3-.627.132-.227Z" transform="translate(-1049.899 -723.104)" fill="#f9940a"/>
        <path id="Path_1998" data-name="Path 1998" d="M1052.808,735.106l-.11.217-1.333-.6.126-.23Z" transform="translate(-1049.193 -724.37)" fill="#f9940a"/>
        <path id="Path_1999" data-name="Path 1999" d="M1051.921,736.826l-.1.22-1.364-.574.119-.234Z" transform="translate(-1048.523 -725.653)" fill="#f9940a"/>
        <path id="Path_2000" data-name="Path 2000" d="M1051.083,738.568l-.1.222-1.394-.546.113-.236Z" transform="translate(-1047.889 -726.954)" fill="#f9940a"/>
        <path id="Path_2001" data-name="Path 2001" d="M1050.293,740.33l-.091.225-1.423-.517.106-.239Z" transform="translate(-1047.292 -728.271)" fill="#f9940a"/>
        <path id="Path_2002" data-name="Path 2002" d="M1049.555,742.112l-.085.227-1.451-.487.1-.242Z" transform="translate(-1046.732 -729.602)" fill="#f9940a"/>
        <path id="Path_2003" data-name="Path 2003" d="M1048.877,743.915l-.081.228-1.469-.453.09-.245Z" transform="translate(-1046.224 -730.951)" fill="#f9940a"/>
        <path id="Path_2004" data-name="Path 2004" d="M1048.248,745.735l-.074.23-1.486-.418.083-.247Z" transform="translate(-1045.754 -732.314)" fill="#f9940a"/>
        <path id="Path_2005" data-name="Path 2005" d="M1047.67,747.57l-.068.232-1.5-.383.076-.249Z" transform="translate(-1045.322 -733.689)" fill="#f9940a"/>
        <path id="Path_2006" data-name="Path 2006" d="M1047.145,749.42l-.062.233-1.518-.347.069-.251Z" transform="translate(-1044.929 -735.075)" fill="#f9940a"/>
        <path id="Path_2007" data-name="Path 2007" d="M1046.671,751.282l-.055.234-1.532-.311.062-.253Z" transform="translate(-1044.575 -736.471)" fill="#f9940a"/>
        <path id="Path_2008" data-name="Path 2008" d="M1046.25,753.156l-.048.236-1.545-.274.055-.254Z" transform="translate(-1044.261 -737.875)" fill="#f9940a"/>
        <path id="Path_2009" data-name="Path 2009" d="M1045.881,755.041l-.042.237-1.557-.237.048-.255Z" transform="translate(-1043.986 -739.288)" fill="#f9940a"/>
        <path id="Path_2010" data-name="Path 2010" d="M1045.565,756.934l-.035.238-1.568-.2.041-.256Z" transform="translate(-1043.75 -740.707)" fill="#f9940a"/>
        <path id="Path_2011" data-name="Path 2011" d="M1045.3,758.835l-.029.239-1.578-.163.033-.257Z" transform="translate(-1043.554 -742.132)" fill="#f9940a"/>
        <path id="Path_2012" data-name="Path 2012" d="M1045.092,760.742l-.022.239-1.588-.125.026-.258Z" transform="translate(-1043.398 -743.562)" fill="#f9940a"/>
        <path id="Path_2013" data-name="Path 2013" d="M1044.935,762.655l-.015.24-1.6-.087.019-.259Z" transform="translate(-1043.281 -744.995)" fill="#f9940a"/>
        <path id="Path_2014" data-name="Path 2014" d="M1044.831,764.566l-.009.239-1.6-.049.012-.258Z" transform="translate(-1043.204 -746.428)" fill="#f9940a"/>
        <path id="Path_2015" data-name="Path 2015" d="M1044.779,766.479l0,.24-1.609-.011.005-.259Z" transform="translate(-1043.167 -747.862)" fill="#f9940a"/>
        <path id="Path_2016" data-name="Path 2016" d="M1044.774,768.374l0,.24-1.609.027,0-.259Z" transform="translate(-1043.163 -749.278)" fill="#f9940a"/>
        <path id="Path_2017" data-name="Path 2017" d="M1044.813,770.188l.009.24-1.605.066-.011-.259Z" transform="translate(-1043.195 -750.611)" fill="#f9940a"/>
        <path id="Path_2018" data-name="Path 2018" d="M1044.906,772l.016.24-1.6.1-.018-.259Z" transform="translate(-1043.266 -751.942)" fill="#f9940a"/>
        <path id="Path_2019" data-name="Path 2019" d="M1045.051,773.808l.022.239-1.594.142-.025-.258Z" transform="translate(-1043.377 -753.272)" fill="#f9940a"/>
        <path id="Path_2020" data-name="Path 2020" d="M1045.249,775.613l.029.239-1.587.18-.032-.258Z" transform="translate(-1043.527 -754.599)" fill="#f9940a"/>
        <path id="Path_2021" data-name="Path 2021" d="M1045.5,777.412l.036.238-1.579.218-.039-.257Z" transform="translate(-1043.717 -755.922)" fill="#f9940a"/>
        <path id="Path_2022" data-name="Path 2022" d="M1045.8,779.206l.042.237-1.57.256-.047-.256Z" transform="translate(-1043.946 -757.24)" fill="#f9940a"/>
        <path id="Path_2023" data-name="Path 2023" d="M1046.16,780.992l.047.236-1.556.293-.055-.254Z" transform="translate(-1044.217 -758.553)" fill="#f9940a"/>
        <path id="Path_2024" data-name="Path 2024" d="M1046.574,782.771l.054.235-1.54.33-.062-.253Z" transform="translate(-1044.533 -759.861)" fill="#f9940a"/>
        <path id="Path_2025" data-name="Path 2025" d="M1047.041,784.541l.061.233-1.522.365-.069-.251Z" transform="translate(-1044.888 -761.163)" fill="#f9940a"/>
        <path id="Path_2026" data-name="Path 2026" d="M1047.559,786.3l.067.232-1.5.4-.076-.249Z" transform="translate(-1045.282 -762.456)" fill="#f9940a"/>
        <path id="Path_2027" data-name="Path 2027" d="M1048.13,788.048l.074.23-1.485.435-.083-.247Z" transform="translate(-1045.716 -763.74)" fill="#f9940a"/>
        <path id="Path_2028" data-name="Path 2028" d="M1048.752,789.782l.08.228-1.465.469-.09-.245Z" transform="translate(-1046.188 -765.015)" fill="#f9940a"/>
        <path id="Path_2029" data-name="Path 2029" d="M1049.425,791.5l.086.227-1.442.5-.1-.243Z" transform="translate(-1046.698 -766.28)" fill="#f9940a"/>
        <path id="Path_2030" data-name="Path 2030" d="M1050.154,793.211l.091.225-1.413.531-.106-.24Z" transform="translate(-1047.253 -767.536)" fill="#f9940a"/>
        <path id="Path_2031" data-name="Path 2031" d="M1050.934,794.9l.1.223-1.384.56-.112-.237Z" transform="translate(-1047.848 -768.781)" fill="#f9940a"/>
        <path id="Path_2032" data-name="Path 2032" d="M1051.766,796.585l.1.221-1.353.588-.119-.235Z" transform="translate(-1048.482 -770.017)" fill="#f9940a"/>
        <path id="Path_2033" data-name="Path 2033" d="M1052.648,798.249l.11.218-1.322.614-.126-.231Z" transform="translate(-1049.153 -771.24)" fill="#f9940a"/>
        <path id="Path_2034" data-name="Path 2034" d="M1053.577,799.89l.116.215-1.29.64-.132-.227Z" transform="translate(-1049.858 -772.446)" fill="#f9940a"/>
        <path id="Path_2035" data-name="Path 2035" d="M1054.551,801.507l.122.212-1.259.664-.138-.224Z" transform="translate(-1050.598 -773.634)" fill="#f9940a"/>
        <path id="Path_2036" data-name="Path 2036" d="M1055.57,803.1l.127.208-1.226.687-.144-.22Z" transform="translate(-1051.371 -774.805)" fill="#f9940a"/>
        <path id="Path_2037" data-name="Path 2037" d="M1056.634,804.666l.134.206-1.193.709-.15-.217Z" transform="translate(-1052.176 -775.957)" fill="#f9940a"/>
        <path id="Path_2038" data-name="Path 2038" d="M1057.747,806.216l.14.2-1.16.73-.156-.213Z" transform="translate(-1053.019 -777.097)" fill="#f9940a"/>
        <path id="Path_2039" data-name="Path 2039" d="M1058.9,807.742l.145.2-1.127.749-.162-.209Z" transform="translate(-1053.895 -778.218)" fill="#f9940a"/>
        <path id="Path_2040" data-name="Path 2040" d="M1060.106,809.241l.151.2-1.093.768L1059,810Z" transform="translate(-1054.803 -779.32)" fill="#f9940a"/>
        <path id="Path_2041" data-name="Path 2041" d="M1061.351,810.713l.155.194-1.055.783-.175-.2Z" transform="translate(-1055.743 -780.403)" fill="#f9940a"/>
        <path id="Path_2042" data-name="Path 2042" d="M1062.645,812.168l.16.19-1.013.793-.181-.195Z" transform="translate(-1056.725 -781.472)" fill="#f9940a"/>
        <path id="Path_2043" data-name="Path 2043" d="M1063.98,813.595l.165.186-.971.8-.186-.19Z" transform="translate(-1057.737 -782.521)" fill="#f9940a"/>
        <path id="Path_2044" data-name="Path 2044" d="M1065.354,814.992l.171.182-.929.808-.192-.185Z" transform="translate(-1058.778 -783.548)" fill="#f9940a"/>
        <path id="Path_2045" data-name="Path 2045" d="M1066.768,816.359l.176.178-.887.814-.2-.181Z" transform="translate(-1059.848 -784.553)" fill="#f9940a"/>
        <path id="Path_2046" data-name="Path 2046" d="M1068.22,817.694l.181.174-.846.818-.2-.175Z" transform="translate(-1060.946 -785.535)" fill="#f9940a"/>
        <path id="Path_2047" data-name="Path 2047" d="M1069.709,819l.186.169-.806.821-.206-.17Z" transform="translate(-1062.071 -786.492)" fill="#f9940a"/>
        <path id="Path_2048" data-name="Path 2048" d="M1071.234,820.266l.191.165-.765.822-.211-.165Z" transform="translate(-1063.222 -787.425)" fill="#f9940a"/>
        <path id="Path_2049" data-name="Path 2049" d="M1072.794,821.5l.2.16-.725.823-.215-.16Z" transform="translate(-1064.398 -788.333)" fill="#f9940a"/>
        <path id="Path_2050" data-name="Path 2050" d="M1074.388,822.7l.2.155-.686.821-.219-.154Z" transform="translate(-1065.599 -789.214)" fill="#f9940a"/>
        <path id="Path_2051" data-name="Path 2051" d="M1076.015,823.862l.2.152-.644.815-.225-.147Z" transform="translate(-1066.824 -790.068)" fill="#f9940a"/>
        <path id="Path_2052" data-name="Path 2052" d="M1077.679,825l.207.147-.6.8-.229-.141Z" transform="translate(-1068.08 -790.906)" fill="#f9940a"/>
        <path id="Path_2053" data-name="Path 2053" d="M1079.373,826.1l.212.142-.557.79-.233-.135Z" transform="translate(-1069.357 -791.716)" fill="#f9940a"/>
        <path id="Path_2054" data-name="Path 2054" d="M1081.1,827.165l.216.137-.516.775-.236-.129Z" transform="translate(-1070.655 -792.497)" fill="#f9940a"/>
        <path id="Path_2055" data-name="Path 2055" d="M1082.848,828.188l.22.131-.475.759-.24-.123Z" transform="translate(-1071.973 -793.249)" fill="#f9940a"/>
        <path id="Path_2056" data-name="Path 2056" d="M1084.626,829.171l.224.126-.436.741-.243-.117Z" transform="translate(-1073.309 -793.972)" fill="#f9940a"/>
        <path id="Path_2057" data-name="Path 2057" d="M1086.43,830.113l.228.12-.4.722-.246-.111Z" transform="translate(-1074.664 -794.664)" fill="#f9940a"/>
        <path id="Path_2058" data-name="Path 2058" d="M1088.258,831.012l.231.115-.362.7-.249-.1Z" transform="translate(-1076.035 -795.325)" fill="#f9940a"/>
        <path id="Path_2059" data-name="Path 2059" d="M1090.109,831.868l.234.11-.326.679-.252-.1Z" transform="translate(-1077.422 -795.955)" fill="#f9940a"/>
        <path id="Path_2060" data-name="Path 2060" d="M1091.984,832.692l.237.105-.289.647-.255-.089Z" transform="translate(-1078.828 -796.56)" fill="#f9940a"/>
        <path id="Path_2061" data-name="Path 2061" d="M1093.881,833.476l.24.1-.253.615-.258-.083Z" transform="translate(-1080.248 -797.137)" fill="#f9940a"/>
        <path id="Path_2062" data-name="Path 2062" d="M1095.8,834.216l.243.093-.22.581-.26-.076Z" transform="translate(-1081.681 -797.68)" fill="#f9940a"/>
        <path id="Path_2063" data-name="Path 2063" d="M1097.727,834.91l.246.087-.189.546-.261-.07Z" transform="translate(-1083.125 -798.19)" fill="#f9940a"/>
        <path id="Path_2064" data-name="Path 2064" d="M1099.674,835.557l.249.081-.16.51-.263-.063Z" transform="translate(-1084.578 -798.666)" fill="#f9940a"/>
        <path id="Path_2065" data-name="Path 2065" d="M1101.636,836.158l.251.075-.134.472-.264-.056Z" transform="translate(-1086.041 -799.108)" fill="#f9940a"/>
        <path id="Path_2066" data-name="Path 2066" d="M1103.611,836.714l.253.071-.108.428-.266-.047Z" transform="translate(-1087.512 -799.517)" fill="#f9940a"/>
        <path id="Path_2067" data-name="Path 2067" d="M1105.6,837.236l.256.064-.084.38-.267-.04Z" transform="translate(-1088.992 -799.9)" fill="#f9940a"/>
        <path id="Path_2068" data-name="Path 2068" d="M1107.6,837.709l.258.058-.063.331-.268-.033Z" transform="translate(-1090.476 -800.248)" fill="#f9940a"/>
        <path id="Path_2069" data-name="Path 2069" d="M1109.6,838.134l.26.051-.046.282-.268-.027Z" transform="translate(-1091.964 -800.56)" fill="#f9940a"/>
        <path id="Path_2070" data-name="Path 2070" d="M1111.612,838.509l.262.045-.031.231-.269-.02Z" transform="translate(-1093.455 -800.836)" fill="#f9940a"/>
        <path id="Path_2071" data-name="Path 2071" d="M1113.629,838.844l.263.04-.018.172-.269-.011Z" transform="translate(-1094.948 -801.083)" fill="#f9940a"/>
        <path id="Path_2072" data-name="Path 2072" d="M1115.649,839.137l.264.034-.008.112-.268,0Z" transform="translate(-1096.441 -801.298)" fill="#f9940a"/>
        <path id="Path_2073" data-name="Path 2073" d="M1117.664,839.379l.266.028,0,.051-.268,0Z" transform="translate(-1097.928 -801.476)" fill="#f9940a"/>
        <path id="Path_2074" data-name="Path 2074" d="M1119.8,839.586l.134.012-.134.005Z" transform="translate(-1099.499 -801.628)" fill="#f9940a"/>
      </g>
      <path id="Path_2075" data-name="Path 2075" d="M1053.843,692.448q-.521.069-1.038.13l-1.026.17c-.34.064-.677.137-1.014.2s-.667.167-1,.249a23.886,23.886,0,0,0-3.813,1.391,21.969,21.969,0,0,0-6.416,4.506,19.977,19.977,0,0,0-4.192,6.273,18.586,18.586,0,0,0-1.086,3.548,18.693,18.693,0,0,0,1.089,10.889,19.984,19.984,0,0,0,4.192,6.272,21.992,21.992,0,0,0,6.415,4.505,23.872,23.872,0,0,0,3.813,1.392c.332.082.663.174,1,.249s.674.141,1.014.2l1.026.17q.517.061,1.038.13-.523.025-1.05.041c-.351,0-.7-.007-1.055-.011s-.7-.047-1.056-.07-.7-.079-1.054-.119a21.559,21.559,0,0,1-11.413-5.282,20.339,20.339,0,0,1-4.938-6.693,19.655,19.655,0,0,1-1.3-3.92,19.22,19.22,0,0,1,0-8.174,19.537,19.537,0,0,1,1.3-3.919,20.341,20.341,0,0,1,4.937-6.692,21.573,21.573,0,0,1,11.411-5.283c.353-.039.7-.088,1.054-.119s.7-.055,1.055-.07.7-.012,1.055-.012S1053.494,692.432,1053.843,692.448Z" transform="translate(-1012.328 -686.021)" fill="#feae44"/>
      <path id="Path_2076" data-name="Path 2076" d="M1009.43,683.561l-15.134-15.2.045-.061,19.1,10.637Z" transform="translate(-984.951 -668.296)" fill="#feae44"/>
      <path id="Path_2077" data-name="Path 2077" d="M981.119,783.205l-22.078,2.44-.026-.07,20.466-8.121Z" transform="translate(-959.014 -748.542)" fill="#feae44"/>
      <path id="Path_2078" data-name="Path 2078" d="M1001.337,746.174l-12.78-4.047.005-.045,13.486.541Z" transform="translate(-980.732 -722.539)" fill="#feae44"/>
      <path id="Path_2079" data-name="Path 2079" d="M1053.139,712.963l-2.3-2.529.008-.01c.99.608,1.979,1.21,2.976,1.822Z" transform="translate(-1026.515 -699.266)" fill="#fff"/>
      <path id="Path_2080" data-name="Path 2080" d="M1032.721,750.749c-1.117-.389-2.22-.776-3.33-1.162l0-.012,3.553.243C1032.873,750.128,1032.794,750.435,1032.721,750.749Z" transform="translate(-1010.751 -728.047)" fill="#fff"/>
      <path id="Path_2081" data-name="Path 2081" d="M1033.657,786.6l-3.541.355,0-.011,3.289-1.268C1033.485,785.979,1033.573,786.283,1033.657,786.6Z" transform="translate(-1011.281 -754.583)" fill="#fff"/>
      <path id="Path_2082" data-name="Path 2082" d="M1027.932,815.121l-11.168,7.073-.035-.031,8.6-9.714Z" transform="translate(-1001.443 -774.268)" fill="#feae44"/>
      <path id="Path_2083" data-name="Path 2083" d="M1050.379,814.394c-1.028.564-2.045,1.116-3.066,1.677l-.009-.009,2.441-2.422C1049.958,813.888,1050.164,814.142,1050.379,814.394Z" transform="translate(-1023.919 -775.144)" fill="#fff"/>
    </g>
  </g>
</svg>
