<svg xmlns="http://www.w3.org/2000/svg" width="93" height="94" viewBox="0 0 93 94">
  <g id="Group_32" data-name="Group 32" transform="translate(-188 -198)">
    <circle id="Ellipse_8" data-name="Ellipse 8" cx="8" cy="8" r="8" transform="translate(188 250)" fill="#e1f6fd"/>
    <circle id="Ellipse_9" data-name="Ellipse 9" cx="8" cy="8" r="8" transform="translate(213 250)" fill="#e1f6fd"/>
    <circle id="Ellipse_10" data-name="Ellipse 10" cx="8" cy="8" r="8" transform="translate(188 276)" fill="#e1f6fd"/>
    <circle id="Ellipse_11" data-name="Ellipse 11" cx="8" cy="8" r="8" transform="translate(213 276)" fill="#e1f6fd"/>
    <circle id="Ellipse_12" data-name="Ellipse 12" cx="8" cy="8" r="8" transform="translate(240 250)" fill="#e1f6fd"/>
    <circle id="Ellipse_13" data-name="Ellipse 13" cx="8" cy="8" r="8" transform="translate(265 250)" fill="#e1f6fd"/>
    <circle id="Ellipse_14" data-name="Ellipse 14" cx="8" cy="8" r="8" transform="translate(240 276)" fill="#e1f6fd"/>
    <circle id="Ellipse_15" data-name="Ellipse 15" cx="8" cy="8" r="8" transform="translate(265 276)" fill="#e1f6fd"/>
    <circle id="Ellipse_16" data-name="Ellipse 16" cx="8" cy="8" r="8" transform="translate(188 198)" fill="#e1f6fd"/>
    <circle id="Ellipse_17" data-name="Ellipse 17" cx="8" cy="8" r="8" transform="translate(213 198)" fill="#e1f6fd"/>
    <circle id="Ellipse_18" data-name="Ellipse 18" cx="8" cy="8" r="8" transform="translate(188 224)" fill="#e1f6fd"/>
    <circle id="Ellipse_19" data-name="Ellipse 19" cx="8" cy="8" r="8" transform="translate(213 224)" fill="#e1f6fd"/>
    <circle id="Ellipse_20" data-name="Ellipse 20" cx="8" cy="8" r="8" transform="translate(240 198)" fill="#e1f6fd"/>
    <circle id="Ellipse_21" data-name="Ellipse 21" cx="8" cy="8" r="8" transform="translate(265 198)" fill="#e1f6fd"/>
    <circle id="Ellipse_22" data-name="Ellipse 22" cx="8" cy="8" r="8" transform="translate(240 224)" fill="#e1f6fd"/>
    <circle id="Ellipse_23" data-name="Ellipse 23" cx="8" cy="8" r="8" transform="translate(265 224)" fill="#e1f6fd"/>
  </g>
</svg>
